<svg 
          width="40.51361846923828" 
          height="42.70121765136719" fill="none" 
          xmlns="http://www.w3.org/2000/svg">
          <path d="M 22.035559194146742 25.123140549769403 C 22.034451599311993 23.745847031088328 22.304952048104184 22.38182533513355 22.831507930386994 21.10915984287081 C 23.358063812669805 19.83649435060807 24.130313976798575 18.680172413336997 25.10420784815075 17.70627855179132 C 26.078101719502925 16.732384690245645 27.234526477605787 15.960033331099183 28.50719198268347 15.43347745411846 C 29.779857487761152 14.906921577137737 31.14377478186885 14.636523940256637 32.52106831441841 14.637631535080233 C 33.15112674467949 14.64062471787093 33.77964589850379 14.699781270108366 34.39918656727773 14.814463337269324 C 34.14193782279557 14.394385223782006 33.86073564182239 13.9894006335086 33.55697369627797 13.601623354464262 C 30.777671262138604 10.232771904387445 25.918152208336952 7.638804744689786 22.02712884070168 10.915012868241137 C 21.67994808500514 11.22420906441352 21.351001778798302 11.553258176495397 21.041805579512506 11.900438928696042 C 20.174130065264563 13.014317237537771 19.436527702006824 14.223646447235234 18.84353951411738 15.505032648492652 C 18.772261026589746 15.654948674122895 18.672136830959634 15.789340412068336 18.54888838029349 15.900539592109762 C 18.425639929627348 16.011738772151187 18.281747978767285 16.097606280475098 18.125314524273104 16.15314015895958 C 17.968881069778924 16.208674037444062 17.80295210995452 16.23277694751576 17.637176497966117 16.224181307397174 C 17.47140088597771 16.21558566727859 17.30896479051796 16.174488740215402 17.159113772117863 16.103073691128664 C 17.00919774497806 16.031795204318758 16.874908814867734 15.931671009696833 16.7637096337066 15.808422560271724 C 16.652510452545467 15.685174110846615 16.566538527775002 15.541179352248136 16.51100464873133 15.384745899329141 C 16.455470769687658 15.228312446410147 16.431470668561616 15.062486297443863 16.440066308766752 14.896710687124715 C 16.44866194897189 14.730935076805567 16.489760482842467 14.568498982981447 16.56117553264831 14.418647966090255 C 16.636974694050277 14.258627524219598 16.712798522378474 14.115418442667375 16.797019810733445 13.963820121389942 C 14.681276190920418 13.899322591985962 12.58542072747569 13.533455993891153 10.572951547754268 12.877331826603449 C 9.058432748251406 12.368384884339658 7.636335192296089 11.617504732006795 6.361887594353863 10.65387753245027 C 5.077288091059625 11.434748801397426 3.9375191242673737 12.432047565994754 2.9930361103548266 13.601623354464262 C -0.594790912871376 17.99797432011122 -0.6031964676157358 23.514468730251366 1.114917757095902 28.761454879809946 L 1.114917757095902 28.879377017665114 C 2.8667204645196582 34.126363167223694 6.530436833086734 41.066242342232556 12.366971884539645 42.50642636926827 C 13.342559697909318 42.729673131045594 14.35598982655926 42.729673131045594 15.331577639928932 42.50642636926827 C 16.451720794502467 42.270606766758895 17.352765119142493 41.445266947560526 18.573973822251983 41.58844313569478 C 19.47514163839755 41.6895086769381 20.258399564251498 42.27903712011907 21.100612435251257 42.514856722628444 C 22.084593554614333 42.763339500407255 23.114958485057738 42.763339500407255 24.098939604420814 42.514856722628444 C 27.568856536556208 41.67264386010924 30.263888568112254 38.85960759096497 32.25993297599807 35.62551027117893 C 29.520167501953658 35.56158905428661 26.914721027699176 34.42591942079125 25.003043606809957 32.46227719574059 C 23.091366185920737 30.49863497068993 22.025994603696258 27.863634897300255 22.035559194146742 25.123140549769403 ZM 9.772835826598525 9.778078996745489 C 12.069489080453694 10.85762174781171 14.570939040707735 11.432015118033055 17.108477034066155 11.462504721783898 C 16.95931235986795 10.63399223767075 16.731020905091487 9.821729478530466 16.426440878522648 9.036927565361095 C 15.379435517907131 6.258577750583813 13.41934862364829 3.9184467755761467 10.867753682573554 2.4002860963422696 C 8.594238118475626 1.086338699386975 6.068388445517453 0.26834171766412157 3.4562392941003304 0 C 3.56747726715614 1.3462788783752555 3.8768887106301033 2.6686930737444357 4.3743253461056835 3.924637916724624 C 5.37541495856676 6.484184881786511 7.302432634833963 8.573683021645795 9.772835826598525 9.778078996745489 ZM 38.18066915431168 30.723934477527447 C 38.92057990512669 29.98579990343325 39.50753041259086 29.108848127757625 39.90786351866665 28.143423875814552 C 40.30819662474244 27.17799962387148 40.514055798562815 26.14304383183117 40.513615256451146 25.097907319856738 C 40.5147041719603 24.051422039696323 40.30923008800449 23.015058042908613 39.9088916105502 22.048175587218836 C 39.50855313309591 21.08129313152906 38.92121056520154 20.20296522877727 38.18066915431168 19.46355261801317 C 37.442396874736275 18.72441444954745 36.56526693114363 18.138472637644572 35.59974728986124 17.739545355856855 C 34.63422764857885 17.340618074069138 33.59942897148807 17.136569342415978 32.55474474917877 17.13903689272518 C 31.508779829597348 17.136381896956674 30.472544233459946 17.340330554723252 29.505629840962104 17.739236928294897 C 28.538715448464263 18.138143301866542 27.660216255154072 18.724158028976735 26.920388384207214 19.46355261801317 C 26.171883427803202 20.20359232466008 25.577880752175744 21.084996370664086 25.173043418934768 22.056605940579015 C 24.76820608569379 23.028215510493943 24.56056944253783 24.070622559024564 24.56215122173255 25.12319837993727 C 24.560605292253662 26.16774695187172 24.765121383344866 27.20229411755227 25.163996210359574 28.16768684402189 C 25.562871037374283 29.13307957049151 26.14827732372148 30.010398808692123 26.88666697042695 30.749225537607977 C 27.62607958863647 31.48976694104105 28.50440910662604 32.07700669383393 29.471291572051715 32.47734516725706 C 30.438174037477392 32.877683640680196 31.474538044700637 33.083157722567016 32.5210233353985 33.08206880706883 C 33.57366864343181 33.08411831502639 34.61614698617339 32.87665780779793 35.58782142401213 32.47179347114182 C 36.55949586185086 32.06692913448571 37.440912667479004 31.47281803327474 38.18066915431168 30.723934477527447 Z M 32.09148654645355 28.41627945895981 C 31.867697599499156 28.66052376735203 31.557056323699417 28.807103690073543 31.226244417262397 28.824431932617188 C 30.895432510825376 28.841760175160832 30.57104464756664 28.72843781974193 30.322962888380086 28.508910536734444 L 28.25094650628424 26.689701967120513 C 28.000051826460552 26.46763507630713 27.846983413524075 26.15549674524461 27.824905229743347 25.821169952647583 C 27.80282704596262 25.486843160050558 27.913613520457467 25.157346416365495 28.133127176430026 24.90421481094729 C 28.355194069479484 24.653320133649956 28.667332403685045 24.500251722254784 29.00165919964853 24.478173538696367 C 29.335985995612013 24.45609535513795 29.665585551803257 24.56677901932993 29.91871715977034 24.786292673092124 L 31.064011518039052 25.797009793627563 L 35.19920269203226 21.29951908516014 C 35.310706159275036 21.17752932038261 35.44524006440449 21.078845019130892 35.59501806719694 21.00898032179597 C 35.74479606998939 20.93911562446105 35.906931769851916 20.89943777589224 36.072052701161645 20.892394703375953 C 36.237173632471375 20.885351630859667 36.4021288793445 20.91099977151936 36.55731207019471 20.967856646868274 C 36.71249526104492 21.024713522217187 36.8548760348057 21.111696903036933 36.9763623219275 21.22374871410586 C 37.09861713032217 21.335983515990254 37.19754052793524 21.47123702132652 37.267517943347336 21.621723078218633 C 37.33749535875943 21.772209135110746 37.377064409860274 21.93500272679985 37.3841035629413 22.100813891126286 C 37.39114271602232 22.26662505545272 37.36561312585157 22.432151235523094 37.30864161868912 22.58802662983216 C 37.25167011152668 22.743902024141228 37.16453821372572 22.887043436365076 37.052235502933094 23.00923587027908 L 32.09148654645355 28.41627945895981 Z" fill="rgb(226,241,99)"/>
        </svg>