<svg 
          width="63.500030517578125" 
          height="42.730350494384766" fill="none" 
          xmlns="http://www.w3.org/2000/svg">
          <path d="M 55.77001953125 12.0799560546875 C 54.209609150886536 13.472155809402466 52.191293239593506 14.241102000582032 50.10009765625 14.239990234375 C 48.03933310508728 14.242164614843205 46.04701209068298 13.499879598617554 44.489990234375 12.14990234375 C 43.36969864368439 12.671016275882721 42.326701641082764 13.344012081623077 41.39013671875 14.14990234375 C 41.43873166665435 14.51452362537384 41.46194471628405 14.882160067558289 41.4599609375 15.25 C 41.459989588889584 16.947003722190857 41.01911520957947 18.614838004112244 40.18017578125 20.0899658203125 C 43.901442527770996 21.942288041114807 46.909372329711914 24.9679594039917 48.739990234375 28.699951171875 C 49.22999024391174 28.699951171875 49.73995116353035 28.699951171875 50.199951171875 28.699951171875 C 52.23077607154846 28.70252803619951 54.258180379867554 28.531900078058243 56.260009765625 28.18994140625 L 56.260009765625 22.5599365234375 C 56.260009765625 22.162111788988113 56.41815832257271 21.780572146177292 56.699462890625 21.499267578125 C 56.98076745867729 21.217963010072708 57.36218503117561 21.0599365234375 57.760009765625 21.0599365234375 C 58.15783450007439 21.0599365234375 58.53949621319771 21.217963010072708 58.82080078125 21.499267578125 C 59.10210534930229 21.780572146177292 59.260009765625 22.162111788988113 59.260009765625 22.5599365234375 L 59.260009765625 27.469970703125 C 60.17476433515549 27.188655376434326 61.051476776599884 26.7956505715847 61.8701171875 26.2999267578125 C 62.47750782966614 25.959015727043152 62.97915732860565 25.457366228103638 63.320068359375 24.8499755859375 C 63.43851190060377 24.60701447725296 63.499999999999545 24.34024053812027 63.5 24.0699462890625 C 63.503624545410275 22.322502970695496 63.16196846961975 20.59158492088318 62.494384765625 18.9766845703125 C 61.82680106163025 17.36178421974182 60.846564054489136 15.894718170166016 59.610107421875 14.659912109375 C 58.4884729385376 13.584896683692932 57.189228534698486 12.712069869041443 55.77001953125 12.0799560546875 ZM 50.07017517089844 11.19991397857666 C 50.8018581867218 11.200831058667973 51.52663469314575 11.057382762432098 52.20274353027344 10.77767276763916 C 52.87885236740112 10.497962772846222 53.49293792247772 10.08748722076416 54.01011657714844 9.56990909576416 C 54.52813929319382 9.053060173988342 54.93887144327164 8.438841938972473 55.21861267089844 7.762657642364502 C 55.49835389852524 7.086473345756531 55.641708202660084 6.361730992794037 55.64024353027344 5.629967212677002 C 55.6485636793077 4.888288497924805 55.50852766633034 4.152422726154327 55.22862243652344 3.465538740158081 C 54.94871720671654 2.7786547541618347 54.53445380926132 2.1545881628990173 54.01011657714844 1.6299673318862915 C 52.952598452568054 0.6139013767242432 51.53653037548065 0.056746892631053925 50.07017517089844 0.0799185112118721 C 49.32849645614624 0.0715983621776104 48.592508375644684 0.21151229739189148 47.90562438964844 0.4914175271987915 C 47.21874040365219 0.7713227570056915 46.59479600191116 1.185586154460907 46.07017517089844 1.7099233865737915 C 45.54583793878555 2.2345442175865173 45.13157454133034 2.8586108088493347 44.85166931152344 3.545494794845581 C 44.57176408171654 4.232378780841827 44.431972209364176 4.968244552612305 44.44029235839844 5.709923267364502 C 44.43882768601179 6.441687047481537 44.58193784952164 7.166551470756531 44.86167907714844 7.842735767364502 C 45.14142030477524 8.518920063972473 45.55215245485306 9.133016228675842 46.07017517089844 9.64986515045166 C 46.601362347602844 10.159792721271515 47.22831451892853 10.559349715709686 47.91490173339844 10.82540225982666 C 48.60148894786835 11.091454803943634 49.334083914756775 11.21877115778625 50.07017517089844 11.19991397857666 ZM 13.300055503845215 28.739990234375 C 13.790055513381958 28.739990234375 14.300016433000565 28.739990234375 14.760016441345215 28.739990234375 C 16.559067010879517 25.07565975189209 19.490554809570312 22.088157773017883 23.12012481689453 20.219970703125 C 22.248932540416718 18.723037719726562 21.789942730159964 17.021905541419983 21.79004669189453 15.2899169921875 C 21.794790896587074 14.855204194784164 21.824929635971785 14.42120960354805 21.88013458251953 13.989990234375 C 20.97088724374771 13.218181610107422 19.96181356906891 12.572330474853516 18.88013458251953 12.0699462890625 C 17.316163539886475 13.46281349658966 15.294255256652832 14.23167517350521 13.199957847595215 14.22998046875 C 11.14231014251709 14.231546499184333 9.153592109680176 13.4893079996109 7.600104331970215 12.1400146484375 C 6.2284287214279175 12.78660535812378 4.977187752723694 13.662474036216736 3.900153160095215 14.72998046875 C 2.6623350381851196 15.964293360710144 1.6805213689804077 17.4310359954834 1.0112372636795044 19.0458984375 C 0.3419531583786011 20.6607608795166 -0.0017581779102329165 22.391953229904175 0.0000067627697717398405 24.1400146484375 C 0.003466729278443381 24.4110466837883 0.06861937791109085 24.677660956978798 0.190192312002182 24.919921875 C 0.3424537777900696 25.22752496600151 0.5528936684131622 25.502679005265236 0.8100653290748596 25.72998046875 C 1.6416671872138977 26.44579243659973 2.6070340871810913 26.98958721756935 3.650153160095215 27.3299560546875 L 4.000006675720215 27.449951171875 L 4.000006675720215 22.6300048828125 C 4.00000667571976 22.232180148363113 4.158155232667923 21.850640505552292 4.439459800720215 21.5693359375 C 4.720764368772507 21.288031369447708 5.102181941270828 21.1300048828125 5.500006675720215 21.1300048828125 C 5.897831410169601 21.1300048828125 6.279493123292923 21.288031369447708 6.560797691345215 21.5693359375 C 6.842102259397507 21.850640505552292 7.000006675720215 22.232180148363113 7.000006675720215 22.6300048828125 L 7.000006675720215 28.219970703125 C 9.08027720451355 28.58099165558815 11.188744306564331 28.755039358511567 13.300055503845215 28.739990234375 ZM 13.190292358398438 11.19998550415039 C 13.922217905521393 11.202552188187838 14.647256553173065 11.059745788574219 15.323593139648438 10.77994155883789 C 15.99992972612381 10.500137329101562 16.614048898220062 10.08889752626419 17.130233764648438 9.56998062133789 C 17.651858627796173 9.05529797077179 18.0654296875 8.44169968366623 18.347030639648438 7.765170574188232 C 18.628631591796875 7.088641464710236 18.77249752683565 6.36283141374588 18.770126342773438 5.630038738250732 C 18.778834133408964 4.887416958808899 18.638287514448166 4.15057247877121 18.356552124023438 3.4634130001068115 C 18.07481673359871 2.7762535214424133 17.657751858234406 2.1528080701828003 17.130233764648438 1.630038857460022 C 16.614048898220062 1.111121952533722 15.99992972612381 0.6997601389884949 15.323593139648438 0.41995590925216675 C 14.647256553173065 0.14015167951583862 13.922217905521393 -0.0025326621398562565 13.190292358398438 0.000034021897590719163 C 12.458528578281403 -0.0014306504890555516 11.733664155006409 0.1418015956878662 11.057479858398438 0.42154282331466675 C 10.381295561790466 0.7012840509414673 9.766955733299255 1.1120161414146423 9.250106811523438 1.630038857460022 C 8.725769579410553 2.154659688472748 8.311506181955338 2.778726279735565 8.031600952148438 3.4656102657318115 C 7.7516957223415375 4.152494251728058 7.611903373152018 4.888360023498535 7.620223522186279 5.630038738250732 C 7.618758849799633 6.361802518367767 7.761869490146637 7.086544871330261 8.041610717773438 7.762729167938232 C 8.321351945400238 8.438913464546204 8.732084095478058 9.053131699562073 9.250106811523438 9.56998062133789 C 9.766955733299255 10.08800333738327 10.381295561790466 10.49873548746109 11.057479858398438 10.77847671508789 C 11.733664155006409 11.058217942714691 12.458528578281403 11.201450176537037 13.190292358398438 11.19998550415039 ZM 43.07011413574219 25.7698974609375 C 41.69904589653015 24.399827122688293 40.08930850028992 23.291752517223358 38.32011413574219 22.5 C 36.50980722904205 24.172934889793396 34.135151863098145 25.101386097376235 31.67021369934082 25.0999755859375 C 29.250303268432617 25.099252211861312 26.916540026664734 24.201376080513 25.12016487121582 22.5799560546875 C 23.414838910102844 23.3657266497612 21.861046314239502 24.445475816726685 20.53007698059082 25.7698974609375 C 19.04538595676422 27.246504068374634 17.868288040161133 29.002919912338257 17.06669807434082 30.9373779296875 C 16.265108108520508 32.87183594703674 15.855013676919043 34.94596195220947 15.86015510559082 37.0399169921875 C 15.863305575447157 37.38713496923447 15.94536505639553 37.72909015417099 16.10014533996582 38.0399169921875 C 16.300816267728806 38.41829603910446 16.568525224924088 38.75711867213249 16.89018440246582 39.0399169921875 C 17.900251269340515 39.90346372127533 19.06854236125946 40.56242209672928 20.33012580871582 40.97998046875 L 21.33012580871582 41.3099365234375 L 21.33012580871582 35.0699462890625 C 21.33012580871582 34.67212155461311 21.48803022503853 34.29058191180229 21.76933479309082 34.00927734375 C 22.050639361143112 33.72797277569771 22.432301074266434 33.5699462890625 22.83012580871582 33.5699462890625 C 23.227950543165207 33.5699462890625 23.60936811566353 33.72797277569771 23.89067268371582 34.00927734375 C 24.171977251768112 34.29058191180229 24.33012580871582 34.67212155461311 24.33012580871582 35.0699462890625 L 24.33012580871582 42.0699462890625 C 26.797832012176514 42.519692093133926 29.30177402496338 42.74066403135657 31.81010627746582 42.72998046875 C 34.23347997665405 42.73228414938785 36.65248489379883 42.52484831213951 39.04008483886719 42.1099853515625 L 39.04008483886719 35.1099853515625 C 39.04008483886719 34.71216061711311 39.198233395814896 34.33062097430229 39.47953796386719 34.04931640625 C 39.76084253191948 33.76801183819771 40.1422601044178 33.6099853515625 40.54008483886719 33.6099853515625 C 40.937909573316574 33.6099853515625 41.319571286439896 33.76801183819771 41.60087585449219 34.04931640625 C 41.88218042254448 34.33062097430229 42.04008483886719 34.71216061711311 42.04008483886719 35.1099853515625 L 42.04008483886719 41.419921875 C 43.327343225479126 41.069865852594376 44.55919945240021 40.541462659835815 45.69999694824219 39.8499755859375 C 46.45980966091156 39.426568150520325 47.08664810657501 38.79972970485687 47.51005554199219 38.0399169921875 C 47.66483582556248 37.72909015417099 47.74689530651085 37.38713496923447 47.75004577636719 37.0399169921875 C 47.75387769402005 34.94526028633118 47.34218633174896 32.87065327167511 46.53886413574219 30.9361572265625 C 45.73554193973541 29.00166118144989 44.55661177635193 27.2456773519516 43.07011413574219 25.7698974609375 ZM 24.790061950683594 15.260009765625 C 24.787750139134005 16.15730732679367 24.9633769094944 17.046084940433502 25.306663513183594 17.8751220703125 C 25.649950116872787 18.704159200191498 26.154087781906128 19.45696884393692 26.790061950683594 20.0899658203125 C 27.423390746116638 20.725493371486664 28.176188707351685 21.229376703500748 29.005149841308594 21.5726318359375 C 29.834110975265503 21.915886968374252 30.722923517227173 22.091727153630927 31.620140075683594 22.0899658203125 C 32.51895731687546 22.09249792387709 33.409320414066315 21.9171139895916 34.240013122558594 21.5738525390625 C 35.07070583105087 21.2305910885334 35.82513743638992 20.72624319791794 36.459983825683594 20.0899658203125 C 37.09595799446106 19.45696884393692 37.6003398001194 18.704159200191498 37.943626403808594 17.8751220703125 C 38.28691300749779 17.046084940433502 38.46229563723318 16.15730732679367 38.459983825683594 15.260009765625 C 38.46229563723318 14.36271220445633 38.28691300749779 13.473812520503998 37.943626403808594 12.644775390625 C 37.6003398001194 11.815738260746002 37.09595799446106 11.06292861700058 36.459983825683594 10.429931640625 C 35.17522859573364 9.148525953292847 33.434691309928894 8.429231028014328 31.620140075683594 8.429931640625 C 29.808836102485657 8.430784104974009 28.071744799613953 9.150044202804565 26.790061950683594 10.429931640625 C 26.154087781906128 11.06292861700058 25.649950116872787 11.815738260746002 25.306663513183594 12.644775390625 C 24.9633769094944 13.473812520503998 24.787750139134005 14.36271220445633 24.790061950683594 15.260009765625 Z" fill="rgb(226,241,99)"/>
        </svg>