<svg
    width="38.353736877441406"
    height="43.319664001464844" fill="none"
    xmlns="http://www.w3.org/2000/svg">
    <path d="M 38.353736877441406 23.93658018577217 C 38.353736877441406 24.752566947282922 38.029542799912186 25.535182264514287 37.45255306963086 26.112172001272302 C 36.87556333934953 26.689161738030318 36.09304192377732 27.01326192632322 35.27705517142599 27.01326192632322 C 35.114643433363234 27.009320688493485 34.952803877926485 26.99394763634566 34.792567939887924 26.967160524510152 L 34.638583625988225 26.967160524510152 C 32.086250344353985 26.52381354202071 29.713866240677312 25.360181394946324 27.80074116009838 23.61349480157917 L 30.685130259487828 17.55242801697858 C 31.243331328754728 18.441725950480905 31.984979360624738 19.20168965737225 32.86044037194404 19.781350985696278 C 33.73590138326334 20.361012314020307 34.72507519277535 20.74700895056455 35.761730188712725 20.913699062815592 C 36.487174180995645 21.029007995320104 37.14736588069508 21.400141178799014 37.62306252941248 21.959853480333287 C 38.09175320176728 22.51220559822163 38.35047694395122 23.21218166050742 38.353736877441406 23.93658018577217 ZM 16.501741615916035 31.574483919555323 C 15.68843842094067 32.2077579880308 14.802686053733728 32.74218532333192 13.863351847268786 33.16662540742532 C 11.859047249721263 34.04488542653447 9.69060617123721 34.485467575024494 7.502485916508766 34.45887305132193 C 5.6800111051731985 34.46407908145632 3.866410820922412 34.204993363975156 2.118292564212753 33.68970261618417 C 1.3491608318426562 33.437560222108765 0.7103550451938054 32.89246082453632 0.34033709591722494 32.17258153574521 C -0.029680853359355552 31.452702246954093 -0.1011548096357136 30.616036725793492 0.14147198808822575 29.843850440495356 C 0.30517500532672637 29.342791798705786 0.5948529871608245 28.892186548518644 0.9827521420768153 28.5352654362821 C 1.370651296992806 28.178344324045554 1.8436708067924474 27.92706023830339 2.3565926792599674 27.805530008805206 C 3.6795658348527374 27.49017013314949 4.9564341965363035 28.167066405158906 6.248640472718183 28.313208786001237 C 7.632203507007399 28.46675608485139 9.032626180543332 28.335882494176193 10.363777368813262 27.928623568432357 C 11.199599907789214 27.683662649785965 11.982227365460213 27.28449969223739 12.67128791478674 26.751770268381488 C 12.858727639778404 27.361773712062142 13.11687154159993 27.947775422703966 13.440458341290594 28.49780217900427 C 14.201834329687362 29.75211233324856 15.251263570377148 30.806830257800947 16.501741615916035 31.574483919555323 ZM 37.246094375590495 42.1659083487582 C 37.246094375590495 42.4719033728632 37.12445118259206 42.76537238594631 36.9080800280058 42.981743542961325 C 36.691708873419536 43.198114699976344 36.39833375650493 43.319664001464844 36.092338735834716 43.319664001464844 L 11.478884354173331 43.319664001464844 C 11.172889333503115 43.319664001464844 10.879326430839859 43.198114699976344 10.662955276253594 42.981743542961325 C 10.44658412166733 42.76537238594631 10.325128714417552 42.4719033728632 10.325128714417552 42.1659083487582 C 10.325128714417552 41.8599133246532 10.44658412166733 41.56653820444547 10.662955276253594 41.35016704743045 C 10.879326430839859 41.133795890415435 11.172889333503115 41.01215269605155 11.478884354173331 41.01215269605155 L 26.862293617788477 41.01215269605155 C 27.039202819093592 41.01215269605155 27.10076649538061 40.966043775473075 27.08538308719438 40.76605946967264 C 27.031278751053808 39.613636105520015 26.908004410056087 38.46552649548386 26.716196305332424 37.32789015889693 C 26.46202389329511 35.988374879318116 25.972340232147257 34.704472331490216 25.270058254915877 33.53583860080259 C 24.881156674366487 32.90482392133328 24.410385733860956 32.328082578910625 23.87011549866924 31.820606487457795 C 23.693206297364124 31.65908070112194 23.500921198041954 31.497551143941845 23.300936894486334 31.33602535760599 C 22.56229856936142 30.758535989717153 21.72606694536709 30.318306200259684 20.83192987112875 30.036172390803355 C 18.916695501798774 29.39006924545993 17.193828835055776 28.774732796488234 16.101606862429517 26.959490650252302 C 15.700258332650096 26.28680064610627 15.444336403636491 25.537421985530443 15.35027608204819 24.75976836577873 C 15.256215760459888 23.982114746027015 15.32613412889004 23.19344306325666 15.555525905331567 22.44446248463247 C 15.817043853093645 21.76759250537893 16.209328282040556 21.10603834296094 16.52468815415637 20.45224345475539 L 19.10129641149508 15.006549108338987 C 19.170521752631196 14.860406727496658 19.57824967971391 13.675861721833641 19.747467172627836 13.637403199503677 C 19.117467120945633 13.758851914581728 18.497807297125703 13.928596089742966 17.893834047623066 14.145081976699709 C 15.777152699804562 14.941043973613025 13.837739815027726 16.145898072979048 12.186461055117306 17.69094641553975 C 11.88648384332273 17.961689066166954 11.536088037704767 18.170721002679244 11.15532950923531 18.306038642173963 C 10.774570980765853 18.441356281668682 10.370955359855781 18.50026625996588 9.967397596761824 18.4795526758818 C 9.563839833667867 18.458839091797717 9.168216797838927 18.358882943869595 8.803313740829845 18.18529240443139 C 8.438410683820763 18.011701864993185 8.111404771443716 17.767889999378507 7.840723993208079 17.467856943629677 C 7.569981345619949 17.167879728467867 7.360855518579707 16.817577811792106 7.225537880603923 16.43681927904865 C 7.090220242628139 16.056060746305192 7.031310264992205 15.652350494451078 7.052023848843777 15.2487927268272 C 7.072737432695349 14.84523495920332 7.172693579501469 14.449705811808911 7.346284116991125 14.084802750703805 C 7.519874654480781 13.719899689598698 7.763780410233012 13.39279988067564 8.063813462613982 13.12211909940162 C 10.309215155910413 11.04161179190998 12.940544437146446 9.42138936568861 15.80922445176875 8.35320679936035 C 17.845678372932497 7.61171417754796 19.995343627318533 7.229170542615111 22.162579686120523 7.22254879399793 C 23.249743180142303 7.220572682680804 24.33440301700241 7.326233852714606 25.400757135981962 7.537934962409521 C 25.685149299714226 7.5588321631118705 25.965044875011827 7.6210103172105015 26.231521288045695 7.722528355412553 C 26.593564119616687 7.775754910683244 26.94764240101507 7.873945161652604 27.28537490951533 8.014816876479918 C 28.414444792241447 8.487131415639594 29.30963169701165 9.388591135579592 29.774099436482018 10.52091161332831 C 30.238567175952387 11.65323209107703 30.234252963423035 12.923655693136318 29.762081148567898 14.052785280198192 L 29.53129246346701 14.606565459207289 L 24.585579201056856 24.99806848350085 C 24.87786395946063 25.136519167327183 25.177757800067724 25.282620229344353 25.46235086154184 25.43645431866421 C 25.746943923015955 25.59028840798407 26.231491235907452 25.905697098307296 26.585309638517682 26.159523351988906 C 27.703399556482903 26.95245143536641 28.703152177117925 27.900351268332038 29.554390110551964 28.974713434598225 C 31.27534251798113 31.242555000162184 32.40891994636699 33.900658817949775 32.85416128597328 36.712516253636565 C 33.158496653812854 38.140376843416355 33.22606625050092 39.60857157516952 33.05415310829423 41.05834799074 C 34.06176632300199 41.05834799074 35.06932708973699 41.05834799074 36.07694030444475 41.05834799074 C 36.3777550104199 41.05409715613965 36.668273409125355 41.16748704268627 36.886672452658765 41.374391409279276 C 37.105071496192174 41.581295775872285 37.234090619466905 41.86530317914614 37.246094375590495 42.1659083487582 ZM 5.87938400473856 41.01212628868035 L 3.10259613933024 41.01212628868035 C 2.796601118660023 41.01212628868035 2.503226001745425 41.13376948304423 2.2868548471591614 41.35014064005925 C 2.070483692572898 41.56651179707427 1.9488404995744602 41.859886917282 1.9488404995744602 42.165881941387 C 1.9488404995744602 42.471876965492 2.070483692572898 42.765345978575105 2.2868548471591614 42.981717135590124 C 2.503226001745425 43.19808829260514 2.796601118660023 43.31963759409364 3.10259613933024 43.31963759409364 L 5.87938400473856 43.31963759409364 C 6.185379025408777 43.31963759409364 6.478754142323376 43.19808829260514 6.695125296909639 42.981717135590124 C 6.9114964514959025 42.765345978575105 7.03313964449434 42.471876965492 7.03313964449434 42.165881941387 C 7.03313964449434 41.859886917282 6.9114964514959025 41.56651179707427 6.695125296909639 41.35014064005925 C 6.478754142323376 41.13376948304423 6.185379025408777 41.01212628868035 5.87938400473856 41.01212628868035 ZM 30.085178265743565 7.337885921872735 C 32.11147965310144 7.337885921872735 33.754121552265225 5.695244004270355 33.754121552265225 3.6689429609363673 C 33.754121552265225 1.6426417342178574 32.11147965310144 0 30.085178265743565 0 C 28.05887706177021 0 26.416234979221905 1.6426417342178574 26.416234979221905 3.6689429609363673 C 26.416234979221905 5.695244004270355 28.05887706177021 7.337885921872735 30.085178265743565 7.337885921872735 Z" fill="rgb(226,241,99)"/>
</svg>