<svg 
          width="5.999999046325684" 
          height="10.999999046325684" fill="none" 
          xmlns="http://www.w3.org/2000/svg">
          <path d="M 0.5856351810924045 10.999994387031498 C 0.7121521717177441 11.000575430648919 0.8352000856258003 10.946369390865284 0.9351483452836423 10.846066216879798 L 5.769503923859899 6.102144339101097 C 5.841167206507997 6.03147672954579 5.89925206159623 5.940357766975184 5.9392331986321025 5.835915996769757 C 5.979214335667975 5.73147422656433 5.999999046325726 5.616506382778858 5.999999046325684 5.499969703680054 C 5.999999046325726 5.38343302458125 5.979214335667975 5.2684651807957765 5.9392331986321025 5.1640234105903495 C 5.89925206159623 5.0595816403849225 5.841167206507997 4.968522316779893 5.769503923859899 4.897854707224585 L 0.9351483452836423 0.15387316135972093 C 0.8352000856258003 0.05356998737423513 0.7121521717177441 -0.0005764156108948187 0.5856351810924045 0.000004628006526792589 C 0.5088171417006913 -0.0003168329204174702 0.43270842642890184 0.01899116661825829 0.361666333729954 0.05678092176189161 C 0.29062424103100615 0.09457067690552493 0.22604986437635124 0.15006732610639956 0.17164334132194398 0.22019169108025188 C 0.11723681826753671 0.2903160560541042 0.07407739548067037 0.37368747873152575 0.0446231177560072 0.465427117528834 C 0.015168840031344024 0.5571667563261422 -4.022639355671861e-7 0.6555235611266128 7.989544337319215e-12 0.754854988348656 L 7.989544337319215e-12 10.24514399973585 C -4.022639355671861e-7 10.344475426957894 0.015168840031344024 10.442832260878951 0.0446231177560072 10.53457189967626 C 0.07407739548067037 10.62631153847357 0.11723681826753671 10.709623322185415 0.17164334132194398 10.779747687159267 C 0.22604986437635124 10.849872052133119 0.29062424103100615 10.905428336659496 0.361666333729954 10.943218091803129 C 0.43270842642890184 10.981007846946762 0.5088171417006913 11.000315847958442 0.5856351810924045 10.999994387031498 Z" fill="#E2F163"/>
        </svg>