<svg 
          width="32" 
          height="31" fill="none" 
          xmlns="http://www.w3.org/2000/svg">
          <path d="M 27.73449787940705 25.92123840656266 C 27.062867507711736 24.507988271663315 26.175099125223944 23.211973572238833 25.104115108244816 22.081504188276536 C 23.620834529021234 23.578487558502612 21.797202413959017 24.680361606951802 19.79488971981706 25.28946278548034 C 19.70141388745646 26.003351887386955 19.35633664242207 26.6585218175397 18.823777971005736 27.13340675400209 C 18.2912192995894 27.608291690464476 17.607312431630024 27.870639945026767 16.898935208459644 27.87176678403356 C 16.512583527340436 27.872573340607993 16.129892844787843 27.79590654490244 15.772722493244812 27.646150015318405 C 15.415552141701781 27.49639348573437 15.090843763687479 27.276486640464352 14.817371241494433 26.999025041349128 C 14.543898719301387 26.721563442233904 14.327030808472013 26.391987053634878 14.178997463343624 26.02917056357018 C 14.030964118215234 25.66635407350548 13.95466733085446 25.277425988490098 13.954668145364002 24.884632962448503 C 13.95466733085446 24.491839936406908 14.030964118215234 24.102893132668495 14.178997463343624 23.740076642603796 C 14.327030808472013 23.377260152539098 14.543898719301387 23.0477024826631 14.817371241494433 22.770240883547878 C 15.090843763687479 22.492779284432654 15.415552141701781 22.27287243916264 15.772722493244812 22.123115909578605 C 16.129892844787843 21.97335937999457 16.512583527340436 21.896692584289013 16.898935208459644 21.897499140863445 C 17.425933409713515 21.89990932383645 17.94252696860573 22.04636830426371 18.39470948559888 22.321553092450035 C 18.846892002592032 22.59673788063636 19.218022792508414 22.990510385796654 19.469074584314157 23.46159820004382 C 21.079401300189225 22.94171681693096 22.54811872443655 22.047000024606064 23.75858108346225 20.848614214439728 C 23.517253992159162 20.658467926911612 23.26991140402168 20.474465127938885 23.022551141279603 20.3027200946322 C 22.293527031177064 19.80240189756903 21.51512334824257 19.38097748784849 20.699866298718437 19.045308593622334 C 19.396203574045984 20.04993046711441 17.80478433386339 20.59282853513807 16.168944335244277 20.5910071480614 C 14.56693255888718 20.59242419189787 13.006498500805156 20.072224539366566 11.716382973979673 19.106631130278007 C 10.946696628987214 19.4416281247153 10.211220407173982 19.8525087018475 9.52037128536629 20.33338136296004 C 7.492781928822587 21.754285700699544 5.867882708231295 23.69178687061973 4.808424547238841 25.951899674890498 C 4.678095914667081 26.23406749732824 4.610091487177505 26.541833465993477 4.609282565683721 26.853561844660714 C 4.611472927833537 27.227133484147995 4.700464070747325 27.59490535397558 4.868815236911622 27.92696829825749 C 5.019809060329557 28.232866105460037 5.251641868279425 28.489883806262874 5.53841542045421 28.669146947787667 C 7.0053929300143185 29.501340280382315 8.597467515047688 30.08163586680368 10.250362158581659 30.38660850477633 C 12.236055330322717 30.79654758863598 14.257321817330533 31.002043720040504 16.283539351257502 30.999983621117345 C 18.30974278865344 31.001752804218683 20.33098065107274 30.796259568909317 22.31671654393335 30.38660850477633 C 23.968683117893747 30.081398628925243 25.560401549755362 29.503310864701596 27.028663282060798 28.67528668894245 C 27.319631325368793 28.47881800646996 27.557612863947618 28.21146195859207 27.72094679782194 27.897561184372854 C 27.884280731696265 27.583660410153637 27.96780488204089 27.233196814890395 27.963835205798564 26.8781020905568 C 27.959731815913237 26.558205511926126 27.88980670671232 26.242712275248895 27.758654155276165 25.951899674890498 L 27.73449787940705 25.92123840656266 ZM 12.1086646917139 17.039578701927507 C 12.64081032038682 17.583235130012476 13.273571161949722 18.014349915543082 13.970465466016211 18.30807168697283 C 14.667359770082701 18.60179345840258 15.414576604217595 18.752292754491336 16.16898115883554 18.750881799038353 C 16.92358205799284 18.753649724525573 17.671154326088722 18.603761903961516 18.368233323480144 18.30996227799915 C 19.065312320871566 18.016162652036787 19.69795762122477 17.584335293710726 20.229297625957177 17.039578701927507 C 20.765121945781573 16.499381179442963 21.189813476283664 15.856189586830984 21.478795724723515 15.14749017776522 C 21.767777973163366 14.438790768699457 21.91530017014279 13.678718921070162 21.912577629812148 12.91153871148915 C 21.913965450092434 12.14455811954048 21.7659338628163 11.384885068455803 21.47702819234285 10.676373431580462 C 21.1881225218694 9.96786179470512 20.764039821261736 9.324552734794112 20.229297625957177 8.783536158496862 C 19.69795762122477 8.238779566713642 19.065312320871566 7.806933489664547 18.368233323480144 7.513133863702184 C 17.671154326088722 7.2193342377398215 16.92358205799284 7.069465135898795 16.16898115883554 7.072233061386013 C 15.414576604217595 7.070822105933031 14.667359770082701 7.221321402021787 13.970465466016211 7.515043173451536 C 13.273571161949722 7.808764944881285 12.64081032038682 8.239879730411893 12.1086646917139 8.783536158496862 C 11.573922496409338 9.324552734794112 11.149839795801679 9.96786179470512 10.86093412532823 10.676373431580462 C 10.572028454854781 11.384885068455803 10.423996867578643 12.14455811954048 10.42538468785893 12.91153871148915 C 10.422662147528287 13.678718921070162 10.570037050142654 14.438790768699457 10.859019298582506 15.14749017776522 C 11.148001547022359 15.856189586830984 11.572840371889502 16.499381179442963 12.1086646917139 17.039578701927507 ZM 27.90948358509306 18.174313541780904 C 28.447162965248452 18.17431413636641 28.97957851372218 18.06653906807894 29.47625374618908 17.857162217435025 C 29.97292897865598 17.647785366791112 30.424048717898923 17.340896838268044 30.803965152799922 16.954077424714313 C 31.18388158770092 16.567258011160582 31.48517115058619 16.10811058516804 31.690382641704296 15.602847683863713 C 31.895594132822403 15.097584782559387 32.000788434452005 14.556151934034691 31.99999539705109 14.009509979305998 C 31.99893488860751 13.012549766895289 31.645612059150768 12.049128753358708 31.004432783640542 11.2948084527413 C 30.363253508130317 10.540488152123892 29.476865938393843 10.045462555178247 28.506762235393367 9.899889212331985 C 27.84662938278051 7.078635742103397 26.269415921744113 4.566410401624544 24.030339186989764 2.7697778593283435 C 21.791262452235415 0.9731453170321436 19.02137480014931 -0.002770870919638804 16.168944335244277 0.000005909229639073072 C 13.319398480883018 -0.00033781184394234904 10.5528905440326 0.9759515168468131 8.316387145402121 2.7711630448327758 C 6.0798837467716424 4.566374572818738 4.503880501692662 7.075679353784393 3.843057278664684 9.893749471177204 C 2.8037076034243062 9.957765232659243 1.8274921192480218 10.422344492981875 1.1133981054549977 11.19279141221217 C 0.39930409166197367 11.963238331442465 0.0011659828820343365 12.981558800434033 2.19485707663838e-12 14.040171247633836 C -0.000001177140534557139 15.143687498429099 0.4307069913759437 16.202100474236584 1.1976504822667797 16.982979133077063 C 1.9645939731576156 17.76385779191754 3.005090933413309 18.203349602167297 4.090511811958029 18.204974810108745 C 4.335002585562706 18.203920877037827 4.576125151303964 18.147345300191425 4.796346409304285 18.03937026743696 C 5.13400816879589 17.867147394852857 5.415007141762914 17.5985645576962 5.604845179094268 17.266511630855913 C 5.878237563227616 16.804086198172254 6.0662886944382715 16.294833247501447 6.159850346623629 15.763753827054245 C 6.267789291742813 15.195872227204237 6.320337431047915 14.61854699502414 6.316718845407803 14.040171247633836 C 6.331639552645509 13.175497713296641 6.201115513879689 12.314579622767914 5.930660314597174 11.494649539840196 C 5.830020873294481 11.201222021618124 5.68762558319003 10.924343006197292 5.508220075617819 10.672747848913033 C 5.941854326736012 8.56643684748173 6.971580098862711 6.634876532284098 8.470604345615294 5.115570792361281 C 9.480434734140143 4.086012143148868 10.68029930675274 3.2693629185927264 12.001397570362187 2.7125360042938333 C 13.322495833971633 2.1557090899949403 14.738814582429825 1.869647423704119 16.168944335244277 1.87079246695183 C 17.60008903829294 1.8688391326715945 19.017395838502658 2.154525459803165 20.33958428179253 2.7113754434657955 C 21.6617727250824 3.268225427128426 22.862776599470802 4.085279992470243 23.873323393840533 5.115570792361281 C 25.294246529628246 6.561991381915011 26.29077899875792 8.382236715877031 26.751160698296115 10.372200031897307 C 26.61600702453156 10.504824295925518 26.496492804655883 10.653019704116616 26.39515021795682 10.813812145688726 C 26.122645160107105 11.278878344160251 25.934681997363374 11.7899954895331 25.840145050427463 12.322728409368207 C 25.732484547756673 12.888582025689635 25.67993714620449 13.46383865617457 25.68327655164329 14.040171247633836 C 25.667879895442937 14.904877539736338 25.798416333851883 15.765839940992244 26.069335082453918 16.585655517981408 C 26.12783247675331 16.747334411737143 26.19639872289744 16.905095251918063 26.274516132976316 17.05796633754673 C 25.934603171863323 17.928945668585612 25.488727234282187 18.7531978022936 24.94724660946064 19.51146680291079 C 24.77831764734651 19.738415598881765 24.609323884342277 19.965363316332567 24.428328561369895 20.18004460339592 L 25.797871567656514 21.406794836077953 C 25.972833701209638 21.198247294328407 26.135770738622266 20.983566007265054 26.29263333987815 20.79341971973694 C 26.879650290956715 20.0086276778624 27.373713925286943 19.15631252232755 27.76469322424344 18.254055301900923 L 27.90948358509306 18.174313541780904 Z M 4.518843825539606 14.009509979305998 C 4.534373470553354 14.658374697717152 4.442628718948973 15.30528009229085 4.247380310742203 15.923237347294279 C 4.1981182299791495 16.068518283213166 4.126816501643756 16.205084931500135 4.0361601912525265 16.32804845160308 C 3.455336867535041 16.312536091359718 2.902474480603964 16.07104831788309 2.491631479279897 15.65335079860639 C 2.278499553729719 15.438083966488163 2.10962149375761 15.181926029064629 1.994660291582429 14.899735009303129 C 1.8796990894072478 14.617543989541629 1.8210273608762062 14.314945905673712 1.8220312957373095 14.009509979305998 C 1.8211579435643626 13.705005144889142 1.8799781881354676 13.403343582132964 1.99495488031254 13.122167632655929 C 2.1099315724896126 12.840991683178894 2.2786812443497 12.585901480728356 2.491631479279897 12.371771463714321 C 2.902474480603964 11.95407394443762 3.455336867535041 11.712586170960995 4.0361601912525265 11.697073810717631 C 4.204441486090823 11.949921331004802 4.317610028459169 12.23643548006675 4.368014395722709 12.537394725109136 C 4.47099666609849 13.021025911788621 4.521574626961108 13.51468346073261 4.518843825539606 14.009509979305998 Z M 27.98784418730262 16.32804845160308 C 27.81991748135266 16.07275919820029 27.706965605722903 15.7843246799872 27.656137277197494 15.481587796056795 C 27.558318454660593 14.999309731756547 27.509801081247982 14.508034725278586 27.511346916347875 14.015612283014713 C 27.498828776503814 13.368943651039375 27.590510121812724 12.724563090474758 27.782810431145275 12.108024656181213 C 27.83207251190833 11.962743720262328 27.903226945878668 11.826177071975357 27.993883256269896 11.70321355187241 C 28.57470657998738 11.718725912115774 29.12756896691846 11.9602136855924 29.538411968242528 12.3779112048691 C 29.751362203172725 12.592041221883136 29.920259169397866 12.847131424333675 30.03523586157494 13.12830737381071 C 30.150212553752013 13.409483323287745 30.209032798323115 13.711107448597858 30.20815944615017 14.015612283014713 C 30.209163381011273 14.321048209382427 30.15049165248023 14.623646293250344 30.03553045030505 14.905837313011844 C 29.92056924812987 15.188028332773344 29.751543893792707 15.444223707642944 29.538411968242528 15.65949053976117 C 29.122111523698354 16.079288577618204 28.56204519808143 16.31887772829221 27.975766049368065 16.32804845160308 L 27.98784418730262 16.32804845160308 ZM 15.764621303166756 24.884632962448503 C 15.766215856508326 25.189401997748167 15.886441330741299 25.48113903613634 16.098979511842884 25.696070887200293 C 16.31151769294447 25.911002738264244 16.59915917069245 26.031645746569684 16.898935208459644 26.031641435010517 C 17.19815355221794 26.031641435010517 17.48510217827365 25.910802882991867 17.69668148960057 25.695696512739637 C 17.908260800927494 25.480590142487408 18.027062750419923 25.188839320977 18.027062750420196 24.884632962448503 C 18.027062750419923 24.580426603920007 17.908260800927494 24.2886757824096 17.69668148960057 24.073569412157372 C 17.48510217827365 23.858463041905143 17.19815355221794 23.737624489886493 16.898935208459644 23.737624489886493 C 16.59915917069245 23.737620178327326 16.31151769294447 23.85826318663276 16.098979511842884 24.073195037696713 C 15.886441330741299 24.288126888760665 15.766215856508326 24.57986392714884 15.764621303166756 24.884632962448503 Z" fill="rgb(255,255,255)"/>
        </svg>