<svg 
          width="28" 
          height="28" fill="none" 
          xmlns="http://www.w3.org/2000/svg">
          <path d="M 26.014811061811958 8.688820747100912 L 20.71505799482523 7.298894154529292 C 20.059821766751604 7.124695817597018 19.49263923953732 6.697389471483897 19.12886140269757 6.103696625929485 L 16.221072682912432 1.282620405975234 C 15.988278732863488 0.8869436010576818 15.66110207845534 0.5608251000209945 15.271275836965183 0.33606461811350824 C 14.881449595475026 0.11130413620602198 14.442305655540745 -0.004432242000116972 13.996747321613034 0.00012983251829686243 C 13.552277274538355 -0.0032698054755560834 13.114597039878207 0.11301934417696455 12.725996586224877 0.33772441545979015 C 12.337396132571547 0.5624294867426157 12.011105529430283 0.8879245432103962 11.778875667752123 1.282620405975234 L 8.864633240528496 6.103696625929485 C 8.50482071993025 6.698386822705669 7.93931810272315 7.1262909592089985 7.285048993083908 7.298894154529292 L 1.9852960798154398 8.688820747100912 C 1.5541823433672417 8.801520864845989 1.1575649828573396 9.026416911678272 0.8327583758005647 9.342422303343882 C 0.5079517687437898 9.658427695009493 0.26562828572781294 10.055188398982569 0.12835978158479838 10.495469175878235 C -0.008908722558216176 10.9357499527739 -0.03667456848978574 11.40511956665421 0.0479245546551423 11.859565812602257 C 0.13252367780007035 12.314012058550304 0.3266062828034767 12.738635261728655 0.6119156169759068 13.093594402574956 L 4.1129730833177565 17.464793661959913 C 4.545816303912068 18.004499949915175 4.762771431860999 18.696883660500824 4.718991952541639 19.398601009655167 L 4.351445443544817 25.079156251386483 C 4.32765284475624 25.452746609440375 4.377617552965163 25.827451183305428 4.498306639645046 26.180134666428213 C 4.618995726324928 26.532818149550998 4.807866009326394 26.85598740057934 5.053168071856523 27.129702679103563 C 5.298470134386652 27.403417957627784 5.5950443461809005 27.621866360939602 5.924575983550916 27.77155246030835 C 6.254107620920932 27.921238559677096 6.609620795498145 27.998985475927668 6.96913214359499 28.000000000000004 C 7.304648878287111 27.999813993681343 7.637136863667889 27.93375698843384 7.949151229254183 27.80528118169082 L 13.023181943392329 25.68346592470993 C 13.333348173550375 25.55642171919246 13.663457887652859 25.49040164021295 13.996747321613034 25.48874710640075 C 14.33219146285675 25.489725967481412 14.664539257184176 25.555755120773036 14.976766407272226 25.68346592470993 L 20.05095452890887 27.80528118169082 C 20.362968894495165 27.93375698843384 20.695458109622024 27.999813993681343 21.030974844314144 28.000000000000004 C 21.39048619241099 27.998985475927668 21.745841959489702 27.921238559677096 22.07537359685972 27.77155246030835 C 22.404905234229737 27.621866360939602 22.701479446023985 27.403417957627784 22.946781508554114 27.129702679103563 C 23.192083571084243 26.85598740057934 23.38095385408571 26.532818149550998 23.501642940765592 26.180134666428213 C 23.622332027445474 25.827451183305428 23.6722967356544 25.452746609440375 23.64850413686582 25.079156251386483 L 23.2811150353675 19.398601009655167 C 23.237335556048137 18.696883660500824 23.45429068399707 18.004499949915175 23.88713390459138 17.464793661959913 L 27.388034078723425 13.093594402574956 C 27.673343412895857 12.738635261728655 27.867426022702954 12.314012058550304 27.952025145847884 11.859565812602257 C 28.036624268992814 11.40511956665421 28.009015825756048 10.9357499527739 27.871747321613032 10.495469175878235 C 27.734478817470016 10.055188398982569 27.491997965385107 9.658427695009493 27.16719135832833 9.342422303343882 C 26.842384751271556 9.026416911678272 26.445924798260155 8.801520864845989 26.014811061811958 8.688820747100912 Z" fill="rgb(255,255,255)"/>
        </svg>