<svg 
          width="14.487805366516113" 
          height="18" fill="none" 
          xmlns="http://www.w3.org/2000/svg">
          <path d="M 7.243902683258057 6.100267510976289 C 7.643604598038557 6.100267669237574 8.039419973829947 6.0212889324010135 8.408662451998307 5.867904093024762 C 8.777904930166667 5.714519253648511 9.113336865738804 5.489735487452003 9.395843226297881 5.206343211448078 C 9.678349586856958 4.922950935444153 9.902350858139048 4.586558262636302 10.055063984098842 4.216350665090249 C 10.207777110058636 3.846143067544196 10.28620595295811 3.4493765392735956 10.285850662375644 3.0487774200473683 C 10.285850662375644 2.2401913790685324 9.965394959759417 1.4646885640522176 9.394919023352838 0.8929318589617901 C 8.824443086946259 0.32117515387136253 8.050677443896387 0 7.243902683258057 0 C 6.437127922619727 0 5.6634943085620035 0.32117515387136253 5.0930183721554245 0.8929318589617901 C 4.5225424357488455 1.4646885640522176 4.2019547041404675 2.2401913790685324 4.2019547041404675 3.0487774200473683 C 4.201954385882205 3.8576128634081304 4.522355996371259 4.63336217326565 5.092754314171126 5.205549258994941 C 5.663152631970992 5.777736344724231 6.436879401250227 6.099549184616414 7.243902683258057 6.100267510976289 ZM 14.487805366516113 14.991873359070167 C 14.487088408252749 13.066830060404483 13.723590873530627 11.220854165683129 12.365175259733409 9.859897027399287 C 11.00675964593619 8.498939889115444 9.164633900524727 7.734420013535067 7.243902683258057 7.734420147646211 C 5.323171465991387 7.734420013535067 3.4811777495720704 8.498939889115444 2.122762135774852 9.859897027399287 C 0.7643465219776338 11.220854165683129 0.0007169582633636738 13.066830060404483 0 14.991873359070167 C 0 19.00270948335543 14.487805366516113 19.00270948335543 14.487805366516113 14.991873359070167 Z" fill="rgb(88,141,110)"/>
        </svg>