<svg 
          width="25" 
          height="27" fill="none" 
          xmlns="http://www.w3.org/2000/svg">
          <path d="M 23.441619840858806 8.414016194169296 L 14.285714993450117 0.6583753591448835 C 13.860021727233473 0.29483601300204937 13.338601378633658 0.06592285931284031 12.785835924271643 0 L 12.233824623259125 0 C 11.676804017794023 0.06456049173966767 11.15067680016749 0.2934824307829861 10.720787329501661 0.6583753591448835 L 1.5390411669621158 8.414016194169296 C 1.0621590599850563 8.816510124181251 0.6774818857358307 9.319523260282091 0.4117142781822071 9.888007072391552 C 0.14594667062858363 10.456490884501013 0.005390212224978075 11.076803596409052 0.000004542893974773752 11.705892989893712 L 0.000004542893974773752 24.28088645998674 C -0.0006458628146244004 24.638046432347654 0.06854908511015603 24.991800100711256 0.20340216383807774 25.321753631632877 C 0.3382552425659995 25.651707162554498 0.5362314210984105 25.951320740397268 0.7858517868433013 26.20333125715778 C 1.0344077842478712 26.45642093522709 1.3298151472566837 26.65712854522149 1.655245728605475 26.793855859838057 C 1.9806763099542661 26.930583174454625 2.3296403849419773 27.000639353256226 2.6819044662363227 26.999979907978542 L 7.876707807256186 26.999979907978542 C 8.048926262276757 26.999979907978542 8.21404204222123 26.930606013432143 8.33581887208452 26.80713668602198 C 8.45759570194781 26.683667358611817 8.526058263587972 26.516216556987253 8.526058263587972 26.341604548833658 L 8.526058263587972 21.45645054348918 C 8.531847214221312 20.33318779698519 8.956387182913293 19.253690103800402 9.714420329179543 18.434510056056737 C 10.090158454302964 18.023128153505553 10.544966026353407 17.694075408338943 11.050852673760152 17.467621707419983 C 11.556739321166898 17.241168006501024 12.103016618352136 17.122106697404583 12.655997539570537 17.117759337766973 L 12.779336078395275 17.117759337766973 C 13.826195211179101 17.150191971024167 14.82093288431057 17.58847458861586 15.55857505543447 18.342327861606154 C 15.941849101928879 18.728873357163305 16.245886034454433 19.18850413016616 16.453175793979458 19.694721825962908 C 16.660465553504483 20.200939521759658 16.766821347944745 20.74374372909174 16.76627812582889 21.29185670370296 L 16.76627812582889 26.341604548833658 C 16.76627812582889 26.516216556987253 16.834740687469054 26.683667358611817 16.956517517332344 26.80713668602198 C 17.078294347195634 26.930606013432143 17.24341012714011 26.999979907978542 17.41562858216068 26.999979907978542 L 22.318256234030915 26.999979907978542 C 22.670625861960318 27.001367588169295 23.019701908497428 26.93162953907019 23.345231882497053 26.79486046091097 C 23.67076185649668 26.658091382751753 23.96618626875109 26.45701141305303 24.21430883601533 26.20333125715778 C 24.463732429082324 25.952539035030437 24.661730407813558 25.654073056944554 24.796599906842147 25.325209459323702 C 24.931469405870736 24.99634586170285 25.00050532421522 24.643616513632438 24.99999752292459 24.287456551003597 L 24.99999752292459 11.705892989893712 C 24.99179340018087 11.075327107527475 24.848241336373018 10.454155343975406 24.5790928692232 9.885636213859476 C 24.30994440207338 9.317117083743545 23.92173313789126 8.814917439058387 23.441619840858806 8.414016194169296 Z" fill="rgb(255,255,255)"/>
        </svg>