<svg 
          width="13.909090995788574" 
          height="18" fill="none" 
          xmlns="http://www.w3.org/2000/svg">
          <path d="M 0.2357096999303398 14.382774050628147 C 0.4107921893723552 14.638965358068173 0.6640430160879596 14.828867540875908 0.9561292732959206 14.92284668002431 C 1.8018304312470912 15.17878246375194 2.6688634780066804 15.354735598515699 3.5462364415738366 15.448503308245188 C 4.675006014811483 15.579510887872697 5.810383829195225 15.643639011870052 6.946441712163681 15.640540852356649 C 8.083284306926517 15.64370492484475 9.219279538702919 15.579576728865108 10.348831690450629 15.448503308245188 C 11.226204654017785 15.354735598515699 12.093237700777376 15.17878246375194 12.938938858728546 14.92284668002431 C 13.231025115936507 14.828867540875908 13.484390887379467 14.638965358068173 13.659473376821483 14.382774050628147 C 13.82314965816644 14.140736925553954 13.910260633607 13.853393872497502 13.90907931886389 13.559421137974487 C 13.908951162145694 13.366340496280525 13.870775398966128 13.175272783406033 13.796750896304962 12.997548701923009 C 13.722726393643796 12.819824620439984 13.614346231243603 12.659117574087315 13.478161276130153 12.52492654957057 C 13.030428910964131 12.063104923854505 12.70617588407429 11.49205352094062 12.536304124029094 10.866265991581306 C 12.379151369987213 10.328818474886454 12.29982645413461 9.770881561831128 12.300839836003828 9.210066702085383 C 12.300839836003828 8.970034422353754 12.312636044789034 8.780422980034343 12.324409259365732 8.6244020039316 C 12.34324640198671 8.41557391942052 12.357406452072398 8.20190534879009 12.357406452072398 7.98347596793921 C 12.358631943980281 7.751991528668812 12.34125637051832 7.520819941415156 12.305553720676208 7.2922111310949 C 12.100195028639408 6.006922279485421 11.454498917313728 4.837491026625284 10.483119917215038 3.991767284785002 C 9.879517786072011 3.4612507271790904 9.167683811927898 3.0742603938156763 8.399237973632065 2.8588219566474087 C 8.614070749738936 2.5529446785344465 8.729343692087339 2.186046735512731 8.728864982308059 1.8098527654374092 C 8.728864982308274 1.3298524445782198 8.541795259522607 0.8695218412144048 8.208843021986636 0.5301103521612098 C 7.875890784450667 0.19069886310801482 7.42432061272839 0 6.953455052773809 0 C 6.482997595723025 0.0006360540024054615 6.032004870381988 0.19164681888270702 5.699561729920517 0.5309893766231176 C 5.367118589459046 0.8703319343635283 5.180459138214597 1.3302680354403535 5.180459551974193 1.8098527654374092 C 5.1799808421949125 2.186046735512731 5.295253784543317 2.5529446785344465 5.510086560650187 2.8588219566474087 C 4.741640722354354 3.0742603938156763 4.029806972766486 3.4612507271790904 3.4262048416234574 3.991767284785002 C 2.4548258415247686 4.837491026625284 1.809014757402199 6.006922279485421 1.6036560653653995 7.2922111310949 C 1.5679534155232875 7.520819941415156 1.5506928148582146 7.751991528668812 1.5519183067660982 7.98347596793921 C 1.5519183067663123 8.20190534879009 1.5660783568517853 8.41557391942052 1.5849154994727637 8.6244020039316 C 1.5849154994727637 8.780422980034343 1.6083699500377804 8.979635718693553 1.6083699500377804 9.210066702085383 C 1.6120469232280712 9.770215712246864 1.5367817282407352 10.327971326506923 1.384747860091911 10.866265991581306 C 1.2115026898376537 11.493289534633869 0.8830594294014874 12.06445931398652 0.43104848184192446 12.52492654957057 C 0.29486352672847504 12.659117574087315 0.1865983371251682 12.819824620439984 0.11257383446400243 12.997548701923009 C 0.03854933180283664 13.175272783406033 0.00037356577245823016 13.366340496280525 0.0002454090542630124 13.559421137974487 C -0.005101273359140319 13.85186525124737 0.0770289248571707 14.139079083129669 0.2357096999303398 14.382774050628147 Z M 6.357780992100519 2.4123361316290297 C 6.204241853274869 2.2511419162992703 6.119580114541096 2.0345160950625276 6.122316704075254 1.8098527654374092 C 6.1199472363689615 1.585968711599908 6.204600778361246 1.370229182800767 6.357780992100519 1.2097720661083369 C 6.515326537117313 1.0538431844141434 6.72686636432427 0.9675857123604636 6.946441712163681 0.9697397863767079 C 7.166829532563128 0.9669501071855127 7.379275317901418 1.0532542780843737 7.537401888164591 1.2097720661083369 C 7.690582101903864 1.370229182800767 7.775235643896148 1.585968711599908 7.772866176189856 1.8098527654374092 C 7.775602765724014 2.0345160950625276 7.690941026990241 2.2511419162992703 7.537401888164591 2.4123361316290297 C 7.379275317901418 2.5688539196529927 7.166829532563128 2.6551580905518537 6.946441712163681 2.6523684113606585 C 6.836505417097413 2.654515820308764 6.727236187405859 2.634441827701184 6.624977772066688 2.593239365889659 C 6.522719356727517 2.5520369040781343 6.429439829818895 2.4905249139975285 6.350652678693504 2.4123361316290297 L 6.357780992100519 2.4123361316290297 ZM 7.8764054673617325 16.048565694564637 C 7.81502576890003 16.040840906747082 7.752745908665042 16.045528222603572 7.693138829123318 16.062337077801192 C 7.633531749581594 16.079145932998813 7.5778317592147575 16.107764318741925 7.529072647965089 16.146547621251962 C 7.48031353671542 16.185330923762 7.439528477335123 16.23351068873779 7.40904104801471 16.28836356777309 C 7.378553618694297 16.343216446808388 7.358898647495996 16.40364857021686 7.351324703977267 16.46621951723244 C 7.332418073479214 16.623673429110035 7.257892359527272 16.768713137755647 7.141729295251652 16.87426267245005 C 7.023811485329593 16.981465807531745 6.8712242544566875 17.04043900894435 6.713225681252549 17.039870881073483 C 6.5571178014483955 17.04014500622764 6.406372794913702 16.982090803366805 6.289435951925827 16.8766653393126 C 6.172729812409051 16.77223769106319 6.097292182567929 16.628024614503516 6.077426114465578 16.471024850957537 C 6.061011458288831 16.345059872986052 5.996362447226234 16.23085248385581 5.897493687336897 16.153462613685637 C 5.798624927447559 16.076072743515464 5.67366235307599 16.041821233091177 5.550045895143366 16.05817636201483 C 5.488649993545189 16.066174755853403 5.4293418860814056 16.08641570243796 5.375632162265276 16.11777422053218 C 5.321922438449147 16.1491327386264 5.274808205194888 16.190959530995684 5.2369749692191485 16.24089624683007 C 5.199141733243409 16.290832962664453 5.171416782555288 16.347889962631797 5.155229310632253 16.408789919054463 C 5.139041838709217 16.46968987547713 5.13477052193821 16.533269897937018 5.142697275771533 16.595846324548447 C 5.192494068441741 16.982263932842937 5.378185647453958 17.33707886627311 5.665363610421364 17.594359511644935 C 5.9540379319896655 17.855957134280548 6.3269793980687865 18.000306884668234 6.713225681252549 18 C 7.1023219200060295 17.999630286697546 7.477722192747489 17.853569146439778 7.768101092693861 17.58955417791984 C 8.055541618049471 17.32910578248031 8.239805036893811 16.97060695825183 8.2861685154682 16.58143032337316 C 8.30080386515933 16.455447003777973 8.26590197762 16.328673077220465 8.189131474895287 16.228824310886534 C 8.112360972170574 16.128975544552603 7.999908861225542 16.064177651513003 7.8764054673617325 16.048565694564637 Z" fill="rgb(88,141,110)"/>
        </svg>