<svg 
          width="32" 
          height="21.925926208496094" fill="none" 
          xmlns="http://www.w3.org/2000/svg">
          <path d="M 28.104563264831416 6.198503452288785 C 27.31821510460796 6.912873185656126 26.30111151213806 7.307437172401867 25.247281173450776 7.30686669957554 C 24.20878615069717 7.3079824242336215 23.204782342489725 6.927098899920505 22.420141784119238 6.234394502907338 C 21.85558566328122 6.5017900540779925 21.329981127169813 6.847119689912119 20.85801162935434 7.260640529668921 C 20.882500410229945 7.447736100438512 20.89419831938205 7.636378819480789 20.893198620317776 7.825125954057066 C 20.893213058806374 8.695897617706057 20.671040250022948 9.551701770265348 20.24826782790401 10.30862380043585 C 22.123550956401214 11.259092960126129 23.639357372202294 12.811634567345486 24.561873038285363 14.726605429194072 C 24.80880205827749 14.726605429194072 25.065790114736426 14.726605429194072 25.29760103115723 14.726605429194072 C 26.321008362773572 14.727927677581338 27.342691932646055 14.640374545532879 28.35148735876015 14.46490768140294 L 28.35148735876015 11.576022610585621 C 28.35148735876015 11.371889584047539 28.43118423104631 11.17611281280422 28.57294394524332 11.031768965167446 C 28.71470365944033 10.887425117530672 28.906913997300997 10.806338090514435 29.107392507289372 10.806338090514435 C 29.307871017277748 10.806338090514435 29.500204386575348 10.887425117530672 29.64196410077236 11.031768965167446 C 29.78372381496937 11.17611281280422 29.863297655818595 11.371889584047539 29.863297655818595 11.576022610585621 L 29.863297655818595 14.095474144669552 C 30.324276114984414 13.951124776527832 30.766083747162707 13.749464966790264 31.17862674809169 13.495097669662853 C 31.48471322381293 13.320168374259733 31.737512849816582 13.062760471702926 31.90931045204922 12.751094355095344 C 31.96899850713246 12.626425418872795 31.99998462107015 12.489537571333564 31.999984621070382 12.350843371757543 C 32.00181116276152 11.454189990524936 31.82963810495062 10.56601610489004 31.49321813233473 9.737373570695516 C 31.156798159718836 8.908731036500992 30.66282069273427 8.155945684314002 30.03972473638352 7.522338277460052 C 29.474491882568415 6.970723122803235 28.819754859861906 6.522855597509706 28.104563264831416 6.198503452288785 ZM 25.23220213296142 5.746933610292903 C 25.60092410546293 5.7474041851928686 25.966165633955523 5.673797563163976 26.30688173458947 5.530271927763098 C 26.64759783522342 5.38674629236222 26.957058123703305 5.176121840158729 27.217683462219977 4.910540592998749 C 27.47873415429584 4.645333516794528 27.685717185569374 4.330164005169754 27.826689075048694 3.9831982812935016 C 27.967660964528015 3.636232557417249 28.03990246890092 3.264350577340449 28.039164366635603 2.8888657414038774 C 28.043357195629955 2.5082933243298378 27.972787900170562 2.1307036620751885 27.831733363963036 1.7782476813377854 C 27.69067882775551 1.4257917006003824 27.48191627109977 1.1055687707413269 27.217683462219977 0.8363737490497422 C 26.684761198864457 0.31500692434336 25.97115243210563 0.029118136546842605 25.23220213296142 0.04100802729794236 C 24.85844296027094 0.03673876735370472 24.487551507399427 0.1085318274048214 24.14140541309487 0.2521576423843808 C 23.79525931879031 0.39578345736394027 23.48083079500896 0.6083515401995248 23.216455070216828 0.8774010407690315 C 22.952222261337035 1.1465960624606162 22.743459704681296 1.4668189923196717 22.60240516847377 1.8192749730570748 C 22.461350632266242 2.171730953794478 22.390904368243785 2.549320616049127 22.395097197238137 2.9298930331231667 C 22.39435909497282 3.3053778690597384 22.46647756790879 3.677322486223132 22.60744945738811 4.024288210099385 C 22.74842134686743 4.371253933975638 22.955404378140965 4.686360808513817 23.216455070216828 4.951567884718038 C 23.4841398180192 5.213223456463069 23.800084067476977 5.418245345466556 24.146080607698405 5.554763028621483 C 24.492077147919833 5.691280711776411 24.861258686091535 5.756609662912789 25.23220213296142 5.746933610292903 ZM 6.702386954054006 14.747150393597012 C 6.949315974046134 14.747150393597012 7.206304030505067 14.747150393597012 7.438114946925872 14.747150393597012 C 8.34472267224281 12.866898094402293 9.822007152163454 11.333942076521284 11.65108092248587 10.375332297658817 C 11.212055104386888 9.607221534388312 10.980753263923202 8.734331464896611 10.980805654063474 7.845608281373414 C 10.983196433231987 7.622547140814621 10.998384452079375 7.399854528368581 11.026204254292523 7.178585946230342 C 10.568001091183115 6.782553179192879 10.059491767226444 6.45115209847599 9.51439395723408 6.193367211188049 C 8.726251448382786 6.908079429953673 7.707337527615992 7.302600050485588 6.651944064910617 7.301730458474804 C 5.615019735492022 7.302534024730315 4.61283160216247 6.921674369181958 3.8299719959303506 6.229320898893197 C 3.1387342251830934 6.561101472271445 2.5081878983202843 7.010529847700353 1.965430569178991 7.5582919651652 C 1.341648508315916 8.191646315742547 0.846876503350444 8.944265716351483 0.5095996359999596 9.772888798794504 C 0.17232276864947527 10.601511881237526 -0.0008860104895836062 11.489826516810172 0.000003408008325850623 12.386797059462692 C 0.0017470123400882302 12.525869834164624 0.03457982736791062 12.662675753434462 0.09584489856875031 12.786985405713898 C 0.1725750491765304 12.944823630693838 0.2786234470284784 13.086011500464739 0.4082217019284697 13.202645112353904 C 0.8272964526576472 13.569944706310993 1.3137803259275778 13.848978322982871 1.8394463777574541 14.02362940634585 L 2.015750426885445 14.085201662468082 L 2.015750426885445 11.61197629829077 C 2.0157504268852158 11.407843271752688 2.0954472991716044 11.21206650050937 2.2372070133686153 11.067722652872595 C 2.378966727565626 10.92337880523582 2.571177065426292 10.842291778219582 2.7716555754146666 10.842291778219582 C 2.972134085403041 10.842291778219582 3.1644674547006417 10.92337880523582 3.3062271688976526 11.067722652872595 C 3.4479868830946634 11.21206650050937 3.527560723943888 11.407843271752688 3.527560723943888 11.61197629829077 L 3.527560723943888 14.480316404705146 C 4.575885525976213 14.66556456372664 5.638419617939329 14.75487244552271 6.702386954054006 14.747150393597012 ZM 6.647073269546019 5.746970311710829 C 7.015917462486225 5.74828733635852 7.381291093581267 5.675010086258718 7.722121965484876 5.531436096739722 C 8.062952837388485 5.387862107220727 8.372430066720526 5.176845500366691 8.632554598804576 4.910577294416675 C 8.895420545240725 4.646481781823384 9.103834207449266 4.331630379738487 9.245743280489089 3.984487724443315 C 9.387652353528912 3.6373450691481417 9.460151687524764 3.264915228655246 9.458956760697607 2.8889024428218035 C 9.463344936546745 2.5078461175524045 9.392518327959518 2.1297542575624635 9.250541506529556 1.777156915197014 C 9.108564685099594 1.4245595728315643 8.898390360727213 1.1046553642026844 8.632554598804576 0.8364104504676685 C 8.372430066720526 0.5701422445176518 8.062952837388485 0.3590630311615378 7.722121965484876 0.2154890416425419 C 7.381291093581267 0.07191505212354601 7.015917462486225 -0.0012995672290784853 6.647073269546019 0.000017457418612682498 C 6.278310596947571 -0.0007340996900388874 5.913024763921416 0.07276166208156254 5.572270636481032 0.21630332376826827 C 5.231516509040648 0.359844985454974 4.921928082838604 0.5706010734107614 4.661468908850526 0.8364104504676685 C 4.397236099970732 1.1056054721592532 4.188473543314995 1.4258284020183085 4.047419007107468 1.7782843827557118 C 3.9063644708999408 2.130740363493115 3.835917966581706 2.508330025747764 3.8401107955760585 2.8889024428218035 C 3.839372693310742 3.264387278758375 3.9114914065424853 3.636269258835175 4.052463296021807 3.983234982711428 C 4.19343518550113 4.330200706587681 4.400418216774663 4.645370218212454 4.661468908850526 4.910577294416675 C 4.921928082838604 5.1763866714735824 5.231516509040648 5.387142790013885 5.572270636481032 5.530684451700591 C 5.913024763921416 5.674226113387296 6.278310596947571 5.747721868819481 6.647073269546019 5.746970311710829 ZM 21.70461401529915 13.223127439670252 C 21.013682321295633 12.52011281916418 20.202476464230294 11.95153423855728 19.31091437828995 11.545267801067803 C 18.398634170828192 12.403689192908452 17.20195802609516 12.880098874320392 15.959785060234942 12.879375108440541 C 14.74030322443289 12.879003928554766 13.564234124499162 12.418283022394633 12.658974638703286 11.586295092787092 C 11.799598189419392 11.989492068357325 11.016584974112936 12.543536214606057 10.345860592886572 13.223127439670252 C 9.59767020029614 13.98080827165638 9.004487283307277 14.88206566226076 8.600536628525319 15.874680589381635 C 8.19658597374336 16.86729551650251 7.989924312256219 17.931577302408204 7.992515267192081 19.006033822405623 C 7.994102904781875 19.184199357087945 8.035455694204883 19.35966443202376 8.113455169699279 19.519156835786415 C 8.214580628003397 19.713311832540597 8.349489014037598 19.887169523001557 8.511584899621246 20.032279849167207 C 9.02059472964082 20.47538554899188 9.609339563882392 20.81351225629732 10.24509784603673 21.02777106641097 L 10.749034611722877 21.197079111475457 L 10.749034611722877 17.995196518946248 C 10.749034611722877 17.791063492408167 10.828608452572102 17.595286721164843 10.970368166769113 17.45094287352807 C 11.112127880966124 17.3065990258913 11.304461250263726 17.22551199887506 11.5049397602521 17.22551199887506 C 11.705418270240473 17.22551199887506 11.897628608101138 17.3065990258913 12.03938832229815 17.45094287352807 C 12.181148036495161 17.595286721164843 12.260844908781321 17.791063492408167 12.260844908781321 17.995196518946248 L 12.260844908781321 21.587057612611787 C 13.504412791616947 21.817832534852283 14.766241231006422 21.931218321665682 16.03028207359875 21.925736339827356 C 17.251509177616544 21.926918411378118 18.47053469174137 21.82047830948608 19.673734085811542 21.607602577014728 L 19.673734085811542 18.01574148334919 C 19.673734085811542 17.811608456811108 19.753430958097702 17.615831685567787 19.895190672294714 17.471487837931015 C 20.036950386491725 17.327143990294243 20.22916072435239 17.246056963278004 20.429639234340765 17.246056963278004 C 20.63011774432914 17.246056963278004 20.82245111362674 17.327143990294243 20.964210827823752 17.471487837931015 C 21.105970542020764 17.615831685567787 21.18554438286999 17.811608456811108 21.18554438286999 18.01574148334919 L 21.18554438286999 21.253515126496954 C 21.834241210821578 21.073893325428084 22.455018853606525 20.802757486879784 23.02990865396399 20.447939555807213 C 23.41280621491381 20.23067945665812 23.728693153829184 19.909034224516358 23.942063727400782 19.519156835786415 C 24.02006320289518 19.35966443202376 24.06141599231819 19.184199357087945 24.063003629907982 19.006033822405623 C 24.06493467409634 17.931217261498347 23.857468260532524 16.8666886585571 23.452644671272978 15.874054218515692 C 23.04782108201343 14.881419778474287 22.45371482850811 13.980384064434181 21.70461401529915 13.223127439670252 ZM 12.492623640586725 7.830262195157802 C 12.491458633751549 8.290686223643906 12.579963420374872 8.746738470980164 12.752958161141386 9.172136501268238 C 12.9259529019079 9.597534531556311 13.180006406285369 9.983818484457084 13.50049717195902 10.30862380043585 C 13.819654836745453 10.634727612580852 14.199017406545368 10.893281746296273 14.616761399271134 11.06941385421064 C 15.0345053919969 11.245545962125009 15.482410709694348 11.335773607857352 15.934551120282933 11.334869827197432 C 16.387498173752107 11.336169107808686 16.83618487323677 11.246175574949536 17.254801470033435 11.070040225076584 C 17.6734180668301 10.893904875203631 18.05360388995607 10.63511236577878 18.37352632608425 10.30862380043585 C 18.694017091757903 9.983818484457084 18.948193627572305 9.597534531556311 19.12118836833882 9.172136501268238 C 19.294183109105337 8.746738470980164 19.382564864291723 8.290686223643906 19.381399857456547 7.830262195157802 C 19.382564864291723 7.369838166671699 19.294183109105337 6.913723282248846 19.12118836833882 6.488325251960772 C 18.948193627572305 6.062927221672698 18.694017091757903 5.676643268771927 18.37352632608425 5.35183795279316 C 17.726090930804908 4.694319205146001 16.848970200440316 4.325232425577577 15.934551120282933 4.325591926031578 C 15.021768454355096 4.326029345107141 14.146384281484393 4.695098253910518 13.50049717195902 5.35183795279316 C 13.180006406285369 5.676643268771927 12.9259529019079 6.062927221672698 12.752958161141386 6.488325251960772 C 12.579963420374872 6.913723282248846 12.491458633751549 7.369838166671699 12.492623640586725 7.830262195157802 Z" fill="rgb(255,255,255)"/>
        </svg>