<svg 
          width="19" 
          height="18.136363983154297" fill="none" 
          xmlns="http://www.w3.org/2000/svg">
          <path d="M 18.34368896484375 15.517178738247416 L 14.681771278381348 13.147071042171067 C 14.580559112131596 13.082239935390765 14.459394544363022 13.052677992516305 14.338418006896973 13.063340212891692 C 14.217441469430923 13.07400243326708 14.103891715407372 13.12423055218561 14.016524314880371 13.205682046127144 C 13.92915691435337 13.287133540068679 13.873230665922165 13.394995542061444 13.858017921447754 13.511300822165746 C 13.842805176973343 13.627606102270047 13.869201995432377 13.74540621112743 13.932855606079102 13.845252670252496 L 16.25885581970215 17.461682104445774 C 16.370349176228046 17.632756683715506 16.51730838418007 17.7797250135933 16.690448760986328 17.89341985353571 C 17.016986578702927 18.10498116737562 17.417173445224762 18.182693164665523 17.80309295654297 18.10947418161474 C 18.189012467861176 18.036255198563957 18.52900855243206 17.818132445001336 18.74824333190918 17.503023829054047 C 18.9674781113863 17.18791521310676 19.048010230064392 16.80165973304835 18.972135543823242 16.42924786684671 C 18.896260857582092 16.056836000645067 18.67022678256035 15.728740052087327 18.34368896484375 15.517178738247416 Z M 8.125869750976562 15.299798369354903 C 8.125869750976562 15.299798369354903 13.713858842849731 15.697879184710374 15.67491340637207 10.706557305192595 C 16.44285386800766 8.738696402694082 16.44285386800766 6.568486476553314 15.67491340637207 4.600625574054801 C 13.713858842849731 -0.38457249524243586 8.125869750976562 0.007384386964965609 8.125869750976562 0.007384386964965609 C 8.125869750976562 0.007384386964965609 2.534627079963684 -0.3876348808022767 0.5735725164413452 4.600625574054801 C -0.1911908984184265 6.56904355782985 -0.1911908984184265 8.738139321417547 0.5735725164413452 10.706557305192595 C 2.534627079963684 15.697879184710374 8.125869750976562 15.299798369354903 8.125869750976562 15.299798369354903 Z" fill="rgb(88,141,110)"/>
        </svg>