<svg 
          width="28.081632614135742" 
          height="32" fill="none" 
          xmlns="http://www.w3.org/2000/svg">
          <path d="M 23.960530223872922 26.27142617138975 C 23.318481394821617 26.434244583291942 22.658942225891163 26.518454197293917 21.99651883312387 26.522179424449668 C 19.870304346557717 26.522179424449668 17.831182082090034 25.678872309350638 16.32772136742147 24.177734612116062 C 14.824260652752908 22.676596914881486 13.979648516046476 20.640546842713892 13.979648516046476 18.517617598836488 C 13.978801686002061 17.466211986319426 14.185617301133778 16.42501759736493 14.588204354803347 15.453483481163461 C 14.990791408472916 14.481949364961991 15.58122810993865 13.599151724235188 16.32583486004222 12.85569547606697 C 17.070441610145792 12.112239227898751 17.954605384248545 11.522714818146255 18.92764295392654 11.120749807164763 C 19.900680523604535 10.718784796183272 20.943486165625398 10.512288734648724 21.99651883312387 10.513134256244612 C 22.659150097879404 10.513680084919095 23.319081406415442 10.597939759375961 23.960530223872922 10.76388750930453 L 23.960530223872922 5.710444250689486 C 23.962019100601847 5.048141132706205 23.700256033290362 4.41228970535757 23.232810002326666 3.9423784402235293 C 23.000718567018403 3.7095417917489817 22.724755261152 3.5249171808684148 22.42082578450718 3.3991192733453266 C 22.11689630786236 3.2733213658222384 21.791017376199203 3.208831399774899 21.46200840900262 3.209425810858371 L 19.63335392271486 3.209425810858371 C 19.63335392271486 3.209425810858371 19.63335392271486 3.2093912781373892 19.63335392271486 3.2543965820644223 L 19.63335392271486 5.781157452882596 C 19.62149659923199 6.421776608809965 19.35604754733507 7.031633984313206 18.89510070163445 7.477410992282912 C 18.434153855933832 7.923188000252617 17.81516768706093 8.168584940994602 17.173505509119217 8.159977828546483 L 7.018750704505094 8.159977828546483 C 6.700787546598 8.165084299574099 6.384883591788601 8.107639176302296 6.089174193378932 7.990846917640653 C 5.793464794969264 7.874054658979009 5.523691150058488 7.700199303953705 5.2952690046106055 7.47929458479416 C 5.066846859162723 7.258389865634615 4.884277384397264 6.994787125534819 4.757928819420479 6.703411436202501 C 4.631580254443693 6.412035746870183 4.56393569811364 6.098630605404537 4.558902290909448 5.781157452882596 L 4.558902290909448 3.2543965820644223 C 4.558902290909448 3.2543965820644223 4.558902290909448 3.254431114785404 4.558902290909448 3.209425810858371 L 2.504810172801139 3.209425810858371 C 2.1756964252264366 3.2081196145194126 1.8495493440718036 3.272260235519576 1.5455211704517668 3.3980989940684005 C 1.24149299683173 3.523937752617225 0.9656696859943381 3.7089647614300096 0.7340085794770927 3.9423784402235293 C 0.2642019962806067 4.411238998581174 0.00022041866939988454 5.047219646998086 0 5.710444250689486 L 0 29.498961939413558 C 0.00022041866939988454 30.16218654310496 0.2642019962806067 30.79816688494757 0.7340085794770927 31.267027443305214 C 0.9656696859943381 31.500441122098735 1.24149299683173 31.68546843748582 1.5455211704517668 31.811307196034644 C 1.8495493440718036 31.937145954583467 2.1756964252264366 32.001286575583634 2.504810172801139 31.999980379244676 L 21.4491172752444 31.999980379244676 C 21.778126242440983 32.000574790328145 22.104005174104138 31.936084824280805 22.40793465074896 31.81028691675772 C 22.71186412739378 31.684489009234632 22.987827433260186 31.49986409177976 23.21991886856845 31.267027443305214 C 23.687364899532145 30.797116178171173 23.949127966843626 30.16126505739684 23.947639090114702 29.498961939413558 L 23.960530223872922 26.27142617138975 Z M 3.4255829828241278 10.513134256244612 L 13.161847567140965 10.513134256244612 C 13.418017993914306 10.513134256244612 13.663623392133148 10.614734685234032 13.844763238429996 10.79559464991054 C 14.025903084726844 10.97645461458705 14.127739345317718 11.221759007612853 14.127739345317718 11.477533622003696 C 14.127739345317718 11.733308236394539 14.025903084726844 11.978612629420342 13.844763238429996 12.15947259409685 C 13.663623392133148 12.34033255877336 13.418017993914306 12.44193298776278 13.161847567140965 12.44193298776278 L 3.4255829828241278 12.44193298776278 C 3.169412556050786 12.44193298776278 2.923807157831943 12.34033255877336 2.7426673115350955 12.15947259409685 C 2.561527465238248 11.978612629420342 2.459691204647375 11.733308236394539 2.459691204647375 11.477533622003696 C 2.464748364949189 11.225116532724353 2.5688326726004864 10.984782724660715 2.7494272963107464 10.808073450297561 C 2.9300219200210065 10.631364175934408 3.1727247098604696 10.532390581019275 3.4255829828241278 10.532441079484906 L 3.4255829828241278 10.513134256244612 Z M 3.4255829828241278 16.99386974025799 L 8.293715274982546 16.99386974025799 C 8.549885701755887 16.993869740258134 8.795648308923 17.09554865226871 8.976788155219849 17.27640861694522 C 9.157928001516696 17.457268581621726 9.259607053159298 17.70249449162623 9.259607053159298 17.958269106017074 C 9.259607053159298 18.21404372040792 9.157928001516696 18.45934811343372 8.976788155219849 18.640208078110227 C 8.795648308923 18.821068042786735 8.549885701755887 18.922668471776156 8.293715274982546 18.922668471776156 L 3.4255829828241278 18.922668471776156 C 3.169412556050786 18.9226684717763 2.923807157831943 18.821068042786735 2.7426673115350955 18.640208078110227 C 2.561527465238248 18.45934811343372 2.459691204647375 18.21404372040792 2.459691204647375 17.958269106017074 C 2.464748364949189 17.705852016737733 2.5688326726004864 17.465518208674087 2.7494272963107464 17.288808934310936 C 2.9300219200210065 17.112099659947784 3.1727247098604696 17.013126065032647 3.4255829828241278 17.01317656349828 L 3.4255829828241278 16.99386974025799 Z M 13.161847567140965 25.403482438810833 L 3.4255829828241278 25.403482438810833 C 3.169412556050786 25.403482438810833 2.923807157831943 25.301882009821412 2.7426673115350955 25.121022045144905 C 2.561527465238248 24.940162080468397 2.459691204647375 24.694857687442596 2.459691204647375 24.43908307305175 C 2.459691204647375 24.183308458660907 2.561527465238248 23.938004065635102 2.7426673115350955 23.757144100958595 C 2.923807157831943 23.576284136282087 3.169412556050786 23.474683707292666 3.4255829828241278 23.474683707292666 L 13.161847567140965 23.474683707292666 C 13.418017993914306 23.474683707292666 13.663623392133148 23.576284136282087 13.844763238429996 23.757144100958595 C 14.025903084726844 23.938004065635102 14.127739345317718 24.183308458660907 14.127739345317718 24.43908307305175 C 14.130309042411646 24.567343615298917 14.10721387195 24.69483323814201 14.059825079664664 24.814074948832747 C 14.012436287379328 24.933316659523484 13.941628917464527 25.04189515074565 13.851680432153918 25.133500845531923 C 13.761731946843309 25.225106540318198 13.654469386813455 25.297856756299794 13.53600486402584 25.347524044622503 C 13.417540341238224 25.397191332945212 13.290332289302674 25.42281492190761 13.161847567140965 25.42278926205113 L 13.161847567140965 25.403482438810833 ZM 7.443686491681488 2.4828882487617463 C 7.210999036412848 2.4668658218839328 6.9814068050282 2.542843854503515 6.80431769906351 2.69439999117066 C 6.62722859309882 2.845956127837805 6.51686047507625 3.060944863531515 6.497131414142062 3.292989994641081 L 6.497131414142062 5.819672382437952 C 6.508623850992696 5.948769153995951 6.570391945064327 6.068292271154546 6.669118003550488 6.15244039275847 C 6.767844062036649 6.236588514362393 6.895698115708184 6.278697422243751 7.025196271384203 6.269772509604973 L 17.179951075998325 6.269772509604973 C 17.309449231674346 6.278697422243751 17.43730328534588 6.236588514362393 17.53602934383204 6.15244039275847 C 17.634755402318202 6.068292271154546 17.69652349638983 5.948769153995951 17.708015933240464 5.819672382437952 L 17.708015933240464 3.292989994641081 C 17.68828687230628 3.060944863531515 17.577918754283708 2.845956127837805 17.400829648319018 2.69439999117066 C 17.223740542354328 2.542843854503515 16.993991102021408 2.4668658218839328 16.76130364675277 2.4828882487617463 C 16.527587040913097 2.4988439406413137 16.297159118846036 2.4220137440325313 16.11989113780727 2.2691004987350745 C 15.942623156768502 2.1161872534376176 15.832875957239612 1.8995498952742185 15.814748569213345 1.666350895135647 L 15.814748569213345 0.45119835296022015 C 15.804859783695925 0.32265128828653167 15.744547212735457 0.20320096336375776 15.646849412459963 0.11890122160662102 C 15.549151612184469 0.03460147984948428 15.42210638243173 -0.007683888712201496 15.293286487798584 0.001176691225399903 L 8.911860859583944 0.001176691225399903 C 8.782362703907925 -0.007748221413378618 8.65450865023639 0.03436068489618781 8.55578259175023 0.11850880650011097 C 8.457056533264069 0.20265692810403413 8.395288439192438 0.3221015814022218 8.383796002341803 0.45119835296022015 L 8.383796002341803 1.666350895135647 C 8.367289381816171 1.8989972567731461 8.259140647975292 2.1156380734778892 8.082898075351194 2.2687080836285642 C 7.906655502727095 2.4217780937792392 7.676733059627008 2.4987929355393805 7.443686491681488 2.4828882487617463 ZM 26.297917779545127 22.83176305975869 C 26.864776170876397 22.269133493794325 27.314354422313173 21.59988796242135 27.620516661348677 20.86270253831259 C 27.926678900384182 20.12551711420383 28.083361510464826 19.33498753162314 28.081610506627392 18.53693668504886 C 28.08385804288947 17.737856898473627 27.927311785382354 16.946251853241655 27.62114549714176 16.20795302791175 C 27.314979208901168 15.469654202581845 26.865259312048476 14.799358500937505 26.297917779545127 14.235753185613572 C 25.733885733365646 13.67093203492985 25.063402119606735 13.22330515762211 24.325100231303082 12.918729605144561 C 23.58679834299943 12.614154052667011 22.795355761784563 12.458661387895493 21.996521289513687 12.461252073975153 C 21.19779059971257 12.459368382366156 20.406619296048085 12.615136182604237 19.66841520276401 12.919671401400185 C 18.930211109479934 13.224206620196133 18.259586829022933 13.671505980344907 17.695128484066974 14.235753185613572 C 17.128935237040764 14.800209896095838 16.67987271232223 15.470712497072215 16.373787273849587 16.208816341146072 C 16.067701835376944 16.94692018521993 15.910603208529217 17.73806521571181 15.911435756984707 18.53693668504886 C 15.911098933226803 19.334778524592778 16.068491986895026 20.12484855229483 16.374573318590944 20.861839225078267 C 16.68065465028686 21.598829897861705 17.129417418685573 22.268281983670626 17.695128484066974 22.83176305975869 C 18.259269225495846 23.396885496337664 18.929606684060655 23.84512021468172 19.667786366970926 24.150748715760248 C 20.405966049881197 24.456377216838774 21.197392434275713 24.613387790258322 21.996521289513687 24.612699779143874 C 22.79575477160542 24.614093784470448 23.587294610504593 24.45743786811909 24.325571858147896 24.151768995037173 C 25.0638491057912 23.846100121955256 25.734203452036002 23.3974582537773 26.297917779545127 22.83176305975869 Z M 25.441598181923414 16.94247562427725 L 21.64232952905922 21.0701331636138 C 21.47234244096162 21.256172394547637 21.235809277148334 21.36784714610557 20.983940910090276 21.38108289401236 C 20.732072543032217 21.394318641919146 20.48507208811238 21.308041374961217 20.29646495110648 21.140846365806908 L 18.712427588328328 19.752089303867862 C 18.615953597921568 19.669103252155523 18.53708078718679 19.567778711296526 18.480229971732125 19.454010788962833 C 18.42337915627746 19.34024286662914 18.38973645274186 19.216323167406124 18.381345543269695 19.089457155015005 C 18.37295463379753 18.962591142623886 18.38996473207607 18.835337543671507 18.43133798881986 18.71509314340442 C 18.472711245563648 18.594848743137334 18.53764037869428 18.48400698629184 18.62234686096907 18.38907467291588 C 18.79100644308564 18.19795671293486 19.02853766878633 18.081254448201513 19.283096070551895 18.064390413789468 C 19.53765447231746 18.047526379377423 19.788475995121594 18.131860922108054 19.98094659192667 18.29905464748247 L 20.856758870939075 19.07062122990252 L 24.01838557322645 15.637302980024845 C 24.104196557748953 15.543975458573842 24.207685479327576 15.468458792734925 24.32274209707902 15.415039063697556 C 24.43779871483046 15.361619334660187 24.562265263015632 15.331334420383536 24.689038946550347 15.325960834519776 C 24.815812630085063 15.320587248656016 24.942289819692682 15.340233128104831 25.06146694500424 15.383724338198054 C 25.1806440703158 15.427215548291276 25.290163822300688 15.493730756714283 25.383588080011428 15.579460993325265 C 25.477060026227594 15.665139390137874 25.55269355445137 15.768389926566257 25.6061959507631 15.88326876878534 C 25.659698347074833 15.998147611004423 25.68995152292034 16.122421844246766 25.695333424432736 16.248999648052703 C 25.700715325945133 16.37557745185864 25.68103904440825 16.501937702875544 25.637480531469024 16.62093068600292 C 25.593922018529796 16.7399236691303 25.527461086466612 16.849195717647518 25.441598181923414 16.94247562427725 Z" fill="rgb(242,242,247)"/>
        </svg>