<svg 
          width="15" 
          height="14.0625" fill="none" 
          xmlns="http://www.w3.org/2000/svg">
          <path d="M 13.93650592597069 4.363805062718092 L 11.097352497227801 3.66573925171672 C 10.746333089331214 3.5782512476770734 10.442485306894993 3.3636442658122245 10.247604322873698 3.065472635790478 L 8.689860365845945 0.6441731949652402 C 8.565149321176868 0.4454515853526303 8.389876113458218 0.2816643917516155 8.181040626945634 0.1687824532936146 C 7.97220514043305 0.0559005148356137 7.736949458325399 -0.0022260143973801758 7.498257493721268 0.00006520606387677241 C 7.260148539931261 -0.0016422014107145507 7.025676985649039 0.056761947410305866 6.817498171191898 0.16961605687154638 C 6.609319356734757 0.2824701663327869 6.434520819337652 0.4459442460320069 6.310111964867208 0.6441731949652402 L 4.748910664568837 3.065472635790478 C 4.55615395710549 3.3641451676535166 4.253206126458831 3.579052379067019 3.902704817723522 3.66573925171672 L 1.0635514713296998 4.363805062718092 C 0.8325976839467366 4.420406684353454 0.620124097959289 4.533356707874131 0.4461205584645882 4.692064772884762 C 0.2721170189698874 4.850772837895392 0.14230086735418548 5.050038816453299 0.06876416870614198 5.271161974492417 C -0.004772529941901527 5.492285132531534 -0.019647090262385213 5.7280176395026725 0.025673868565254807 5.956255151418544 C 0.07099482739289482 6.1844926633344155 0.17496765150186253 6.3977520845735425 0.32781193766566435 6.57602397450751 L 2.203378437491655 8.771380745403974 C 2.435258734238608 9.04243859091722 2.5514846956398207 9.390175945564028 2.5280314031473066 9.742600953509848 L 2.3311314876132947 12.595558385182942 C 2.3183854525479854 12.783187471259115 2.345152260517052 12.971376152329734 2.4098071283812748 13.148505133808811 C 2.4744619962454975 13.325634115287889 2.5756425049962828 13.48794010073739 2.7070543242088516 13.625408711603349 C 2.8384661434214205 13.762877322469308 2.9973451854540536 13.872589132168326 3.1738799911879907 13.94776630261022 C 3.350414796921928 14.022943473052113 3.5408682833025775 14.06199047340117 3.733463648354459 14.0625 C 3.913204756225238 14.062406581647995 4.0913233198220835 14.029230630351814 4.258473872814741 13.964705950625968 L 6.976704612531605 12.899062127365479 C 7.142865092973416 12.835256443790856 7.319709582671174 12.802099038053377 7.498257493721268 12.801268077991447 C 7.677959712244688 12.801759693489545 7.856003173491524 12.834921656638244 8.02326771818155 12.899062127365479 L 10.741582783344038 13.964705950625968 C 10.908733336336695 14.029230630351814 11.086852558726084 14.062406581647995 11.266593666596863 14.0625 C 11.459189031648744 14.06199047340117 11.64955819258377 14.022943473052113 11.826092998317707 13.94776630261022 C 12.002627804051643 13.872589132168326 12.161506846084277 13.762877322469308 12.292918665296847 13.625408711603349 C 12.424330484509417 13.48794010073739 12.525510993260202 13.325634115287889 12.590165861124424 13.148505133808811 C 12.654820728988646 12.971376152329734 12.681587536957712 12.783187471259115 12.668841501892404 12.595558385182942 L 12.472025911804016 9.742600953509848 C 12.448572619311502 9.390175945564028 12.564798580712715 9.04243859091722 12.796678877459668 8.771380745403974 L 14.672161113601835 6.57602397450751 C 14.825005399765637 6.3977520845735425 14.928978226448013 6.1844926633344155 14.974299185275653 5.956255151418544 C 15.019620144103293 5.7280176395026725 15.004829906655026 5.492285132531534 14.931293208006982 5.271161974492417 C 14.85775650935894 5.050038816453299 14.727856052884878 4.850772837895392 14.553852513390177 4.692064772884762 C 14.379848973895477 4.533356707874131 14.167459713353654 4.420406684353454 13.93650592597069 4.363805062718092 Z" fill="rgb(255,255,255)"/>
        </svg>